<svg width="1113" height="737" viewBox="0 0 1113 737" fill="#1414144D" xmlns="http://www.w3.org/2000/svg">
<path d="M1110.81 1L1006.72 216.533L484.466 218.909H484.464C392.998 219.42 307.116 255.527 242.751 320.926C190.075 374.397 119.734 404.007 44.8447 404.346L-467.654 406.716L-364.218 192.652L-351.137 191.19L161.389 188.814H161.39C242.583 188.304 318.883 156.211 376.121 98.3037H376.291L376.585 98.0068C436.525 37.4007 516.156 3.71551 601.177 3.37695H601.178L1100.58 1H1110.81Z" stroke="#262626" stroke-opacity="0.5" stroke-width="2"/>
<path d="M994.517 240.946L888.841 456.649L354.25 459.025H354.25C262.784 459.536 176.902 495.643 112.537 561.042C59.8609 614.513 -10.4802 644.123 -85.3696 644.462L-583.682 646.662L-480.244 432.595L-467.674 431.136L44.854 428.76H44.855C126.187 428.249 202.611 396.047 259.882 337.952L259.881 337.951C319.821 277.345 399.452 243.662 484.473 243.323H484.474L983.881 240.946H994.517Z" stroke="#262626" stroke-opacity="0.5" stroke-width="2"/>
<path d="M877.158 480.892L797.632 648.877L299.53 651.083C221.067 651.424 147.514 682.438 92.2695 738.495V738.496C30.4735 801.308 -52.1968 836.181 -140.09 836.52H-140.091L-216.26 836.86L-636.796 838.898H-676.406L-595.291 671.08L-85.0234 668.706H-85.0215C-3.68891 668.195 72.7337 635.992 130.005 577.897C189.944 517.291 269.576 483.607 354.597 483.269L854.004 480.892H877.158Z" stroke="#262626" stroke-opacity="0.5" stroke-width="2"/>
</svg>
