<svg width="124" height="124" viewBox="0 0 124 124" fill="none" xmlns="http://www.w3.org/2000/svg">
<path fill-rule="evenodd" clip-rule="evenodd" d="M61.9999 6.81215e-10C70.1418 -3.81648e-05 78.2041 1.60361 85.7263 4.71937C93.2485 7.83514 100.083 12.402 105.841 18.1592C111.598 23.9165 116.165 30.7513 119.281 38.2735C122.396 45.7957 124 53.8579 124 61.9999C124 96.2416 96.2416 124 61.9999 124C27.7584 124 0 96.2416 0 61.9999C0 27.7584 27.7584 6.81215e-10 61.9999 6.81215e-10ZM68.2001 68.2001H55.8C40.4506 68.2001 27.2728 77.4963 21.5891 90.7665C30.5822 103.377 45.3308 111.6 61.9999 111.6C78.6689 111.6 93.4176 103.377 102.411 90.7656C96.7272 77.4963 83.5494 68.2001 68.2001 68.2001ZM61.9999 18.6C51.7274 18.6 43.3999 26.9276 43.3999 37.2C43.3999 47.4724 51.7274 55.8 61.9999 55.8C72.2723 55.8 80.5998 47.4724 80.5998 37.2C80.5998 26.9276 72.2726 18.6 61.9999 18.6Z" fill="#D6790F"/>
</svg>
