<svg width="16" height="16" viewBox="0 0 16 16" fill="none" xmlns="http://www.w3.org/2000/svg">
<path d="M7.91264 11.3912L5.17612 13.0397C5.05523 13.1167 4.92885 13.1496 4.79697 13.1387C4.66508 13.1277 4.54969 13.0837 4.45078 13.0068C4.35187 12.9298 4.27494 12.8338 4.21999 12.7186C4.16504 12.6034 4.15405 12.4742 4.18702 12.3309L4.91236 9.21521L2.48906 7.12161C2.37916 7.0227 2.31058 6.90994 2.28332 6.78333C2.25607 6.65673 2.2642 6.5332 2.30772 6.41275C2.35124 6.2923 2.41718 6.19339 2.50554 6.11602C2.5939 6.03865 2.71479 5.98919 2.86821 5.96765L6.06632 5.68741L7.3027 2.75306C7.35765 2.62118 7.44293 2.52227 7.55854 2.45633C7.67416 2.39039 7.79219 2.35742 7.91264 2.35742C8.03309 2.35742 8.15113 2.39039 8.26674 2.45633C8.38236 2.52227 8.46764 2.62118 8.52259 2.75306L9.75897 5.68741L12.9571 5.96765C13.1109 5.98963 13.2318 6.03909 13.3197 6.11602C13.4077 6.19295 13.4736 6.29186 13.5176 6.41275C13.5615 6.53364 13.5699 6.65739 13.5426 6.78399C13.5154 6.9106 13.4466 7.02314 13.3362 7.12161L10.9129 9.21521L11.6383 12.3309C11.6712 12.4738 11.6602 12.603 11.6053 12.7186C11.5503 12.8342 11.4734 12.9303 11.3745 13.0068C11.2756 13.0833 11.1602 13.1272 11.0283 13.1387C10.8964 13.1501 10.7701 13.1171 10.6492 13.0397L7.91264 11.3912Z" fill="#808285"/>
</svg>
