<svg width="36" height="36" viewBox="0 0 36 36" fill="none" xmlns="http://www.w3.org/2000/svg">
<g transform="scale(-1,1) translate(-36,0)">
<path class="arrow-shape" d="M20.8077 11.0762C20.492 11.0762 20.1892 11.2022 19.966 11.4265L14.0386 17.3832C13.9275 17.4939 13.8393 17.6257 13.7792 17.7708C13.719 17.916 13.688 18.0717 13.688 18.229C13.688 18.3863 13.719 18.542 13.7792 18.6872C13.8393 18.8323 13.9275 18.9641 14.0386 19.0748L19.966 25.0315C20.0762 25.1431 20.2073 25.2318 20.3518 25.2922C20.4962 25.3527 20.6512 25.3839 20.8077 25.3839C20.9642 25.3839 21.1191 25.3527 21.2636 25.2922C21.408 25.2318 21.5391 25.1431 21.6493 25.0315C21.7605 24.9207 21.8486 24.789 21.9088 24.6438C21.969 24.4986 22 24.3429 22 24.1856C22 24.0284 21.969 23.8726 21.9088 23.7275C21.8486 23.5823 21.7605 23.4505 21.6493 23.3398L16.5518 18.229L21.6493 13.1182C21.8726 12.8939 21.998 12.5896 21.998 12.2724C21.998 11.9551 21.8726 11.6509 21.6493 11.4265C21.4261 11.2022 21.1234 11.0762 20.8077 11.0762Z" fill="currentColor"/>
<circle cx="18" cy="18" r="17" stroke="#B1B1B1" stroke-width="2"/>
</g>
</svg>
