<svg width="32" height="34" viewBox="0 0 32 34" fill="none" xmlns="http://www.w3.org/2000/svg">
<path d="M32 24.4496C31.9999 26.6786 31.2522 28.8406 29.8807 30.5775C28.5093 32.3144 26.5965 33.5219 24.4592 34L23.4384 30.8806C24.3733 30.7242 25.2624 30.3582 26.0416 29.8092C26.8207 29.2601 27.4705 28.5418 27.944 27.7059H24C23.1513 27.7059 22.3374 27.3625 21.7373 26.7512C21.1371 26.1399 20.8 25.3108 20.8 24.4464V17.9273C20.8 17.0629 21.1371 16.2338 21.7373 15.6225C22.3374 15.0112 23.1513 14.6678 24 14.6678H28.7008C28.3104 11.5173 26.8047 8.62023 24.4663 6.52013C22.1279 4.42003 19.1175 3.26127 16 3.26127C12.8825 3.26127 9.87211 4.42003 7.53372 6.52013C5.19533 8.62023 3.68965 11.5173 3.2992 14.6678H8C8.84869 14.6678 9.66263 15.0112 10.2627 15.6225C10.8629 16.2338 11.2 17.0629 11.2 17.9273V24.4464C11.2 25.3108 10.8629 26.1399 10.2627 26.7512C9.66263 27.3625 8.84869 27.7059 8 27.7059H3.2C2.35131 27.7059 1.53737 27.3625 0.937258 26.7512C0.337142 26.1399 0 25.3108 0 24.4464V16.2976C0 7.29642 7.1632 0 16 0C24.8368 0 32 7.29642 32 16.2976V24.4496Z" fill="white"/>
</svg>
