<svg width="160" height="120" viewBox="0 0 160 120" fill="none" xmlns="http://www.w3.org/2000/svg">
<rect x="0.5" y="0.5" width="159" height="119" rx="4.5" fill="white" stroke="#D9D9D9"/>
<g clip-path="url(#clip0_569_5194)">
<path d="M93.1273 74.9749C93.1164 74.8771 92.6484 57.6577 92.6484 57.6577C92.9385 56.2777 93.6828 55.6771 94.5065 55.2972L99.8342 53.0735C100.849 52.6545 101.949 54.2301 100.787 55.0486C99.7138 55.8 97.0541 56.8504 95.8993 61.6246C95.7132 62.5185 95.4806 72.8965 95.3931 74.9749C94.2 76.2012 93.1273 74.9749 93.1273 74.9749Z" fill="#808285"/>
<path d="M58.8096 47.439C59.8522 47.439 60.6977 48.3022 60.6977 49.3637C60.6977 50.4253 59.8522 51.2913 58.8096 51.2913C57.767 51.2913 56.9242 50.4281 56.9242 49.3637C56.9242 48.2994 57.7698 47.439 58.8096 47.439ZM57.6822 74.9777C57.6658 74.8157 57.0227 57.8505 57.0227 57.8505L56.916 55.719C57.4113 55.3614 57.9641 55.1352 58.7877 55.1352C59.6114 55.1352 60.2052 55.3531 60.6977 55.7246L60.6129 57.8505C60.4816 60.1105 59.9644 74.8212 59.9507 74.9749C58.7631 76.1957 57.6822 74.9749 57.6822 74.9749V74.9777Z" fill="#808285"/>
<path d="M49.112 44.7738C49.112 44.7571 48.874 44.1593 48.4635 44.0531C48.1981 43.9861 47.8505 43.9917 47.3908 44.3297C44.8432 52.0538 40.7496 62.4765 37.6985 69.6028C36.9377 71.1728 36.0922 71.1896 35.3068 69.6028C32.2858 62.524 28.1867 51.9756 25.6555 44.3157C25.6227 44.2459 25.1 43.9162 24.6485 44.0363C24.2189 44.1425 24 44.7459 24 44.7655C25.2095 49.5871 32.6087 72.0053 33.6075 74.1591C34.7431 76.609 38.2074 76.609 39.3896 74.1591C40.4075 72.0472 47.6918 49.5145 49.112 44.771V44.7738Z" fill="#808285"/>
<path d="M107.22 75.226C108.64 70.4825 115.924 47.9526 116.942 45.8379C118.124 43.388 121.589 43.388 122.724 45.8379C123.723 47.9946 131.122 70.4099 132.332 75.2316C132.332 75.2511 132.113 75.8545 131.683 75.9579C131.234 76.0808 130.709 75.7484 130.676 75.6785C129.549 72.2676 128.219 68.8036 126.706 64.8117C126.347 63.8423 125.729 63.4289 124.716 63.3339L117.473 62.9065C116.015 62.8003 116.288 61.1018 117.257 61.0013L124.257 60.4454C125.031 60.3979 124.875 59.9872 124.604 59.138C124.503 58.786 123.282 55.8109 121.022 50.3942C120.237 48.8075 119.391 48.8242 118.633 50.3942C115.585 57.5205 111.489 67.9432 108.941 75.6674C108.481 76.0054 108.134 76.011 107.868 75.9439C107.461 75.8378 107.22 75.2399 107.22 75.2232V75.226Z" fill="#808285"/>
<path d="M74.2351 46.7822C74.7632 46.4247 75.1736 46.2012 76.052 46.2012C76.9304 46.2012 77.3135 46.4414 77.8444 46.813C77.8444 46.813 77.7896 53.2046 77.8416 54.2717L82.1159 52.509C83.6155 51.8944 84.3379 53.9002 83.2597 54.7047C82.0502 55.607 78.9718 56.7384 77.7541 62.5043C77.6036 63.3507 77.1274 74.9523 77.1165 75.0612C75.9809 76.2289 74.9493 75.0612 74.9493 75.0612C74.7796 70.6949 74.6373 66.3202 74.5224 61.94C74.3938 59.3811 73.8793 58.1324 73.6741 57.7273C73.644 57.6798 73.6139 57.6295 73.5893 57.5765C73.499 57.3893 73.4497 57.1798 73.4497 56.9563C73.4497 56.3417 73.8355 55.8165 74.3773 55.6266C74.3171 52.6822 74.2706 49.7322 74.2378 46.7822H74.2351Z" fill="#808285"/>
<path d="M132.332 46.4864C132.332 45.1651 133.363 44.1035 134.647 44.1035C135.93 44.1035 136.964 45.1651 136.964 46.4864C136.964 47.8077 135.935 48.8581 134.647 48.8581C133.358 48.8581 132.332 47.8022 132.332 46.4864ZM136.702 46.4864C136.702 45.2768 135.815 44.3577 134.647 44.3577C133.478 44.3577 132.6 45.2768 132.6 46.4864C132.6 47.696 133.486 48.6095 134.647 48.6095C135.807 48.6095 136.702 47.7016 136.702 46.4864ZM133.867 44.9863H134.682C135.249 44.9863 135.555 45.3718 135.555 45.7824C135.555 46.1931 135.254 46.5088 134.751 46.5423H134.701C134.813 46.6289 134.901 46.7406 135.008 46.8971L135.771 47.9558H135.402L134.649 46.8803C134.48 46.64 134.408 46.5646 134.165 46.5646V47.9586H133.864V44.9863H133.867ZM134.551 46.3132C134.939 46.3132 135.24 46.1624 135.24 45.7908C135.24 45.4947 135.046 45.26 134.625 45.26H134.168V46.316H134.551V46.3132ZM134.551 46.3132C134.939 46.3132 135.24 46.1624 135.24 45.7908C135.24 45.4947 135.046 45.26 134.625 45.26H134.168V46.316H134.551V46.3132ZM133.867 44.9863H134.682C135.249 44.9863 135.555 45.3718 135.555 45.7824C135.555 46.1931 135.254 46.5088 134.751 46.5423H134.701C134.813 46.6289 134.901 46.7406 135.008 46.8971L135.771 47.9558H135.402L134.649 46.8803C134.48 46.64 134.408 46.5646 134.165 46.5646V47.9586H133.864V44.9863H133.867ZM136.702 46.4864C136.702 45.2768 135.815 44.3577 134.647 44.3577C133.478 44.3577 132.6 45.2768 132.6 46.4864C132.6 47.696 133.486 48.6095 134.647 48.6095C135.807 48.6095 136.702 47.7016 136.702 46.4864ZM132.332 46.4864C132.332 45.1651 133.363 44.1035 134.647 44.1035C135.93 44.1035 136.964 45.1651 136.964 46.4864C136.964 47.8077 135.935 48.8581 134.647 48.8581C133.358 48.8581 132.332 47.8022 132.332 46.4864Z" fill="#808285"/>
<path d="M132.332 46.4864C132.332 45.1651 133.363 44.1035 134.647 44.1035C135.93 44.1035 136.964 45.1651 136.964 46.4864C136.964 47.8077 135.935 48.8581 134.647 48.8581C133.358 48.8581 132.332 47.8022 132.332 46.4864ZM136.702 46.4864C136.702 45.2768 135.815 44.3577 134.647 44.3577C133.478 44.3577 132.6 45.2768 132.6 46.4864C132.6 47.696 133.486 48.6095 134.647 48.6095C135.807 48.6095 136.702 47.7016 136.702 46.4864ZM133.867 44.9863H134.682C135.249 44.9863 135.555 45.3718 135.555 45.7824C135.555 46.1931 135.254 46.5088 134.751 46.5423H134.701C134.813 46.6289 134.901 46.7406 135.008 46.8971L135.771 47.9558H135.402L134.649 46.8803C134.48 46.64 134.408 46.5646 134.165 46.5646V47.9586H133.864V44.9863H133.867ZM134.551 46.3132C134.939 46.3132 135.24 46.1624 135.24 45.7908C135.24 45.4947 135.046 45.26 134.625 45.26H134.168V46.316H134.551V46.3132Z" stroke="#808285" stroke-width="0.25" stroke-miterlimit="3.86"/>
</g>
<defs>
<clipPath id="clip0_569_5194">
<rect width="113" height="32" fill="white" transform="translate(24 44)"/>
</clipPath>
</defs>
</svg>
