<svg width="18" height="21" viewBox="0 0 18 21" fill="none" xmlns="http://www.w3.org/2000/svg">
<path d="M9 0.700195C11.2013 0.700195 13.3126 1.57431 14.8691 3.13086C16.4257 4.68741 17.2998 6.7987 17.2998 9C17.2998 11.8092 15.7672 14.1571 14.0605 15.9023C13.315 16.6561 12.5098 17.3487 11.6533 17.9727L11.2881 18.2324L10.8682 18.5186L10.6797 18.6436L10.3145 18.876L9.97852 19.0811L9.58008 19.3135C9.40344 19.4143 9.20338 19.4668 9 19.4668C8.84749 19.4668 8.69689 19.4373 8.55664 19.3799L8.41992 19.3135L8.00879 19.0742L7.50391 18.7627L7.32715 18.6475L6.92676 18.3809H6.92773C5.98781 17.7449 5.10376 17.0303 4.28613 16.2441L3.93945 15.9023C2.2326 14.1559 0.700195 11.8091 0.700195 9C0.700195 6.7987 1.57431 4.68741 3.13086 3.13086C4.68741 1.57431 6.7987 0.700195 9 0.700195ZM9 5.2998C8.51411 5.2998 8.03289 5.39609 7.58398 5.58203C7.13516 5.76797 6.72731 6.04027 6.38379 6.38379C6.04027 6.72731 5.76797 7.13516 5.58203 7.58398C5.39609 8.03289 5.2998 8.51411 5.2998 9C5.2998 9.48589 5.39609 9.96711 5.58203 10.416C5.76797 10.8648 6.04027 11.2727 6.38379 11.6162C6.72731 11.9597 7.13516 12.232 7.58398 12.418C8.03289 12.6039 8.51411 12.7002 9 12.7002C9.9813 12.7002 10.9223 12.3101 11.6162 11.6162C12.3101 10.9223 12.7002 9.9813 12.7002 9C12.7002 8.0187 12.3101 7.07767 11.6162 6.38379C10.9223 5.6899 9.9813 5.2998 9 5.2998Z" stroke="white" stroke-width="1.4"/>
</svg>
