<svg width="36" height="36" viewBox="0 0 36 36" fill="none" xmlns="http://www.w3.org/2000/svg">
<circle cx="18" cy="18" r="17" transform="matrix(-1 0 0 1 36 0)" stroke="#B1B1B1" stroke-width="2"/>
<path d="M15.1923 11.0762C15.508 11.0762 15.8108 11.2022 16.034 11.4265L21.9614 17.3832C22.0725 17.4939 22.1607 17.6257 22.2208 17.7708C22.281 17.916 22.312 18.0717 22.312 18.229C22.312 18.3863 22.281 18.542 22.2208 18.6872C22.1607 18.8323 22.0725 18.9641 21.9614 19.0748L16.034 25.0315C15.9238 25.1431 15.7927 25.2318 15.6482 25.2922C15.5038 25.3527 15.3488 25.3839 15.1923 25.3839C15.0358 25.3839 14.8809 25.3527 14.7364 25.2922C14.592 25.2318 14.4609 25.1431 14.3507 25.0315C14.2395 24.9207 14.1514 24.789 14.0912 24.6438C14.031 24.4986 14 24.3429 14 24.1856C14 24.0284 14.031 23.8726 14.0912 23.7275C14.1514 23.5823 14.2395 23.4505 14.3507 23.3398L19.4482 18.229L14.3507 13.1182C14.1274 12.8939 14.002 12.5896 14.002 12.2724C14.002 11.9551 14.1274 11.6509 14.3507 11.4265C14.5739 11.2022 14.8766 11.0762 15.1923 11.0762Z" fill="#B1B1B1"/>
</svg>
