<svg width="196" height="48" viewBox="0 0 196 48" fill="none" xmlns="http://www.w3.org/2000/svg">
<path d="M44.2 16V4.8H45.768L49.72 12.624L53.688 4.8H55.272V16H53.928V7.2L50.232 14.432H49.224L45.544 7.232V16H44.2ZM60.5011 16.192C59.8825 16.192 59.3385 16.0693 58.8691 15.824C58.4105 15.5787 58.0531 15.2 57.7971 14.688C57.5518 14.176 57.4291 13.536 57.4291 12.768V7.936H58.7731V12.624C58.7731 13.424 58.9491 14.0267 59.3011 14.432C59.6531 14.8373 60.1491 15.04 60.7891 15.04C61.2371 15.04 61.6425 14.9333 62.0051 14.72C62.3678 14.496 62.6505 14.1813 62.8531 13.776C63.0665 13.36 63.1731 12.8533 63.1731 12.256V7.936H64.5171V16H63.3011L63.2211 14.592C62.9758 15.0933 62.6131 15.488 62.1331 15.776C61.6531 16.0533 61.1091 16.192 60.5011 16.192ZM59.6691 6.88C59.4451 6.88 59.2531 6.80533 59.0931 6.656C58.9438 6.496 58.8691 6.304 58.8691 6.08C58.8691 5.86667 58.9438 5.68 59.0931 5.52C59.2531 5.36 59.4451 5.28 59.6691 5.28C59.8825 5.28 60.0691 5.36 60.2291 5.52C60.3891 5.68 60.4691 5.86667 60.4691 6.08C60.4691 6.304 60.3891 6.496 60.2291 6.656C60.0691 6.80533 59.8825 6.88 59.6691 6.88ZM62.2291 6.88C62.0051 6.88 61.8131 6.80533 61.6531 6.656C61.5038 6.496 61.4291 6.304 61.4291 6.08C61.4291 5.86667 61.5038 5.68 61.6531 5.52C61.8131 5.36 62.0051 5.28 62.2291 5.28C62.4425 5.28 62.6238 5.36 62.7731 5.52C62.9331 5.68 63.0131 5.86667 63.0131 6.08C63.0131 6.304 62.9331 6.496 62.7731 6.656C62.6238 6.80533 62.4425 6.88 62.2291 6.88ZM69.785 16.192C69.113 16.192 68.5263 16.08 68.025 15.856C67.5343 15.632 67.1397 15.3227 66.841 14.928C66.553 14.5227 66.377 14.048 66.313 13.504H67.689C67.7423 13.7813 67.8543 14.0373 68.025 14.272C68.1957 14.5067 68.425 14.6987 68.713 14.848C69.0117 14.9867 69.3743 15.056 69.801 15.056C70.1743 15.056 70.4837 15.0027 70.729 14.896C70.9743 14.7787 71.1557 14.624 71.273 14.432C71.401 14.24 71.465 14.032 71.465 13.808C71.465 13.4773 71.385 13.2267 71.225 13.056C71.0757 12.8853 70.8517 12.752 70.553 12.656C70.2543 12.5493 69.8917 12.4587 69.465 12.384C69.113 12.32 68.7663 12.2347 68.425 12.128C68.0837 12.0213 67.7797 11.8827 67.513 11.712C67.2463 11.5307 67.033 11.312 66.873 11.056C66.7237 10.8 66.649 10.4853 66.649 10.112C66.649 9.65333 66.7663 9.248 67.001 8.896C67.2357 8.53333 67.5717 8.25067 68.009 8.048C68.457 7.84533 68.9743 7.744 69.561 7.744C70.425 7.744 71.1237 7.952 71.657 8.368C72.1903 8.784 72.505 9.38667 72.601 10.176H71.273C71.2197 9.77067 71.0437 9.456 70.745 9.232C70.457 8.99733 70.057 8.88 69.545 8.88C69.0437 8.88 68.6597 8.98133 68.393 9.184C68.137 9.38667 68.009 9.65333 68.009 9.984C68.009 10.1973 68.0783 10.3893 68.217 10.56C68.3663 10.72 68.5797 10.8587 68.857 10.976C69.145 11.0933 69.497 11.1893 69.913 11.264C70.4463 11.36 70.9317 11.488 71.369 11.648C71.8063 11.808 72.1583 12.048 72.425 12.368C72.7023 12.6773 72.841 13.12 72.841 13.696C72.841 14.1973 72.713 14.6347 72.457 15.008C72.2117 15.3813 71.8597 15.6747 71.401 15.888C70.9423 16.0907 70.4037 16.192 69.785 16.192ZM68.553 20.16V19.312H70.025C70.3983 19.312 70.6703 19.248 70.841 19.12C71.0223 18.992 71.113 18.8 71.113 18.544C71.113 18.3093 71.0223 18.128 70.841 18C70.6703 17.8827 70.3983 17.824 70.025 17.824H69.241V15.904H70.137V17.024C70.5423 17.0133 70.8997 17.0613 71.209 17.168C71.5183 17.2853 71.7583 17.4613 71.929 17.696C72.1103 17.9307 72.201 18.2187 72.201 18.56C72.201 18.8907 72.1157 19.1733 71.945 19.408C71.785 19.6533 71.5557 19.84 71.257 19.968C70.969 20.096 70.6383 20.16 70.265 20.16H68.553ZM77.5849 16C77.1049 16 76.6889 15.9253 76.3369 15.776C75.9849 15.6267 75.7129 15.376 75.5209 15.024C75.3395 14.6613 75.2489 14.176 75.2489 13.568V9.072H73.8409V7.936H75.2489L75.4249 5.984H76.5929V7.936H78.9289V9.072H76.5929V13.568C76.5929 14.0693 76.6942 14.4107 76.8969 14.592C77.0995 14.7627 77.4569 14.848 77.9689 14.848H78.8329V16H77.5849ZM83.9998 16.192C83.2424 16.192 82.5704 16.016 81.9838 15.664C81.4078 15.312 80.9544 14.8213 80.6238 14.192C80.2931 13.552 80.1278 12.8107 80.1278 11.968C80.1278 11.1147 80.2878 10.3733 80.6078 9.744C80.9384 9.11467 81.3971 8.624 81.9838 8.272C82.5811 7.92 83.2638 7.744 84.0318 7.744C84.8211 7.744 85.4878 7.92 86.0318 8.272C86.5864 8.624 87.0078 9.088 87.2958 9.664C87.5944 10.2293 87.7438 10.8533 87.7438 11.536C87.7438 11.6427 87.7438 11.7547 87.7438 11.872C87.7438 11.9893 87.7384 12.1227 87.7278 12.272H81.1358V11.232H86.4318C86.3998 10.496 86.1544 9.92 85.6958 9.504C85.2478 9.088 84.6824 8.88 83.9998 8.88C83.5411 8.88 83.1144 8.98667 82.7198 9.2C82.3358 9.40267 82.0264 9.70667 81.7918 10.112C81.5571 10.5067 81.4398 11.0027 81.4398 11.6V12.048C81.4398 12.7093 81.5571 13.264 81.7918 13.712C82.0371 14.16 82.3518 14.496 82.7358 14.72C83.1304 14.944 83.5518 15.056 83.9998 15.056C84.5651 15.056 85.0291 14.9333 85.3918 14.688C85.7651 14.432 86.0318 14.0907 86.1918 13.664H87.5198C87.3918 14.144 87.1678 14.576 86.8478 14.96C86.5278 15.344 86.1278 15.648 85.6478 15.872C85.1784 16.0853 84.6291 16.192 83.9998 16.192ZM89.5575 16V7.936H90.7735L90.8695 9.472C91.0508 9.10933 91.2802 8.8 91.5575 8.544C91.8455 8.288 92.1868 8.09067 92.5815 7.952C92.9868 7.81333 93.4455 7.744 93.9575 7.744V9.152H93.4615C93.1202 9.152 92.7948 9.2 92.4855 9.296C92.1762 9.38133 91.8988 9.52533 91.6535 9.728C91.4188 9.93067 91.2322 10.208 91.0935 10.56C90.9655 10.9013 90.9015 11.328 90.9015 11.84V16H89.5575ZM95.6074 16V7.936H96.9514V16H95.6074ZM96.2794 6.224C96.0127 6.224 95.7887 6.13867 95.6074 5.968C95.4367 5.78667 95.3514 5.56267 95.3514 5.296C95.3514 5.02933 95.4367 4.816 95.6074 4.656C95.7887 4.48533 96.0127 4.4 96.2794 4.4C96.5354 4.4 96.754 4.48533 96.9354 4.656C97.1167 4.816 97.2074 5.02933 97.2074 5.296C97.2074 5.56267 97.1167 5.78667 96.9354 5.968C96.754 6.13867 96.5354 6.224 96.2794 6.224ZM110.805 16V4.8H112.149V16H110.805ZM103.653 16V4.8H104.997V16H103.653ZM104.741 10.848V9.744H111.141V10.848H104.741ZM114.592 16V7.936H115.936V16H114.592ZM115.264 6.224C114.997 6.224 114.773 6.13867 114.592 5.968C114.421 5.78667 114.336 5.56267 114.336 5.296C114.336 5.02933 114.421 4.816 114.592 4.656C114.773 4.48533 114.997 4.4 115.264 4.4C115.52 4.4 115.738 4.48533 115.92 4.656C116.101 4.816 116.192 5.02933 116.192 5.296C116.192 5.56267 116.101 5.78667 115.92 5.968C115.738 6.13867 115.52 6.224 115.264 6.224ZM117.764 16V14.896L122.228 9.056H117.844V7.936H123.764V9.04L119.284 14.88H123.844V16H117.764ZM125.636 16V7.936H126.852L126.932 9.088C127.188 8.672 127.529 8.34667 127.956 8.112C128.393 7.86667 128.868 7.744 129.38 7.744C129.796 7.744 130.169 7.80267 130.5 7.92C130.841 8.02667 131.14 8.19733 131.396 8.432C131.652 8.656 131.86 8.944 132.02 9.296C132.297 8.80533 132.676 8.42667 133.156 8.16C133.646 7.88267 134.169 7.744 134.724 7.744C135.342 7.744 135.881 7.872 136.34 8.128C136.809 8.37333 137.166 8.752 137.412 9.264C137.668 9.76533 137.796 10.4053 137.796 11.184V16H136.468V11.328C136.468 10.5173 136.302 9.90933 135.972 9.504C135.641 9.09867 135.177 8.896 134.58 8.896C134.164 8.896 133.79 9.008 133.46 9.232C133.129 9.44533 132.868 9.76 132.676 10.176C132.484 10.592 132.388 11.104 132.388 11.712V16H131.044V11.328C131.044 10.5173 130.878 9.90933 130.548 9.504C130.217 9.09867 129.748 8.896 129.14 8.896C128.734 8.896 128.366 9.008 128.036 9.232C127.716 9.44533 127.46 9.76 127.268 10.176C127.076 10.592 126.98 11.104 126.98 11.712V16H125.636ZM143.422 16.192C142.664 16.192 141.992 16.016 141.406 15.664C140.83 15.312 140.376 14.8213 140.046 14.192C139.715 13.552 139.55 12.8107 139.55 11.968C139.55 11.1147 139.71 10.3733 140.03 9.744C140.36 9.11467 140.819 8.624 141.406 8.272C142.003 7.92 142.686 7.744 143.454 7.744C144.243 7.744 144.91 7.92 145.454 8.272C146.008 8.624 146.43 9.088 146.718 9.664C147.016 10.2293 147.166 10.8533 147.166 11.536C147.166 11.6427 147.166 11.7547 147.166 11.872C147.166 11.9893 147.16 12.1227 147.15 12.272H140.558V11.232H145.854C145.822 10.496 145.576 9.92 145.118 9.504C144.67 9.088 144.104 8.88 143.422 8.88C142.963 8.88 142.536 8.98667 142.142 9.2C141.758 9.40267 141.448 9.70667 141.214 10.112C140.979 10.5067 140.862 11.0027 140.862 11.6V12.048C140.862 12.7093 140.979 13.264 141.214 13.712C141.459 14.16 141.774 14.496 142.158 14.72C142.552 14.944 142.974 15.056 143.422 15.056C143.987 15.056 144.451 14.9333 144.814 14.688C145.187 14.432 145.454 14.0907 145.614 13.664H146.942C146.814 14.144 146.59 14.576 146.27 14.96C145.95 15.344 145.55 15.648 145.07 15.872C144.6 16.0853 144.051 16.192 143.422 16.192ZM151.882 16C151.402 16 150.986 15.9253 150.634 15.776C150.282 15.6267 150.01 15.376 149.818 15.024C149.636 14.6613 149.546 14.176 149.546 13.568V9.072H148.138V7.936H149.546L149.722 5.984H150.89V7.936H153.226V9.072H150.89V13.568C150.89 14.0693 150.991 14.4107 151.194 14.592C151.396 14.7627 151.754 14.848 152.266 14.848H153.13V16H151.882ZM154.979 16V4.48H156.323V16H154.979ZM162.078 16.192C161.321 16.192 160.649 16.016 160.062 15.664C159.486 15.312 159.033 14.8213 158.702 14.192C158.371 13.552 158.206 12.8107 158.206 11.968C158.206 11.1147 158.366 10.3733 158.686 9.744C159.017 9.11467 159.475 8.624 160.062 8.272C160.659 7.92 161.342 7.744 162.11 7.744C162.899 7.744 163.566 7.92 164.11 8.272C164.665 8.624 165.086 9.088 165.374 9.664C165.673 10.2293 165.822 10.8533 165.822 11.536C165.822 11.6427 165.822 11.7547 165.822 11.872C165.822 11.9893 165.817 12.1227 165.806 12.272H159.214V11.232H164.51C164.478 10.496 164.233 9.92 163.774 9.504C163.326 9.088 162.761 8.88 162.078 8.88C161.619 8.88 161.193 8.98667 160.798 9.2C160.414 9.40267 160.105 9.70667 159.87 10.112C159.635 10.5067 159.518 11.0027 159.518 11.6V12.048C159.518 12.7093 159.635 13.264 159.87 13.712C160.115 14.16 160.43 14.496 160.814 14.72C161.209 14.944 161.63 15.056 162.078 15.056C162.643 15.056 163.107 14.9333 163.47 14.688C163.843 14.432 164.11 14.0907 164.27 13.664H165.598C165.47 14.144 165.246 14.576 164.926 14.96C164.606 15.344 164.206 15.648 163.726 15.872C163.257 16.0853 162.707 16.192 162.078 16.192ZM167.636 16V7.936H168.852L168.948 9.472C169.129 9.10933 169.358 8.8 169.636 8.544C169.924 8.288 170.265 8.09067 170.66 7.952C171.065 7.81333 171.524 7.744 172.036 7.744V9.152H171.54C171.198 9.152 170.873 9.2 170.564 9.296C170.254 9.38133 169.977 9.52533 169.732 9.728C169.497 9.93067 169.31 10.208 169.172 10.56C169.044 10.9013 168.98 11.328 168.98 11.84V16H167.636ZM173.686 16V7.936H175.03V16H173.686ZM174.358 6.224C174.091 6.224 173.867 6.13867 173.686 5.968C173.515 5.78667 173.43 5.56267 173.43 5.296C173.43 5.02933 173.515 4.816 173.686 4.656C173.867 4.48533 174.091 4.4 174.358 4.4C174.614 4.4 174.832 4.48533 175.014 4.656C175.195 4.816 175.286 5.02933 175.286 5.296C175.286 5.56267 175.195 5.78667 175.014 5.968C174.832 6.13867 174.614 6.224 174.358 6.224Z" fill="#B1B1B1"/>
<path d="M50.1 42.24C48.8067 42.24 47.7 41.9333 46.78 41.32C45.86 40.7067 45.1467 39.86 44.64 38.78C44.1467 37.6867 43.9 36.4267 43.9 35C43.9 33.5733 44.1467 32.32 44.64 31.24C45.1467 30.1467 45.86 29.2933 46.78 28.68C47.7 28.0667 48.8067 27.76 50.1 27.76C51.3933 27.76 52.5 28.0667 53.42 28.68C54.34 29.2933 55.0467 30.1467 55.54 31.24C56.0467 32.32 56.3 33.5733 56.3 35C56.3 36.4267 56.0467 37.6867 55.54 38.78C55.0467 39.86 54.34 40.7067 53.42 41.32C52.5 41.9333 51.3933 42.24 50.1 42.24ZM50.1 39.54C50.7267 39.54 51.2733 39.3533 51.74 38.98C52.22 38.6067 52.5867 38.0867 52.84 37.42C53.1067 36.74 53.24 35.9333 53.24 35C53.24 34.0667 53.1067 33.2667 52.84 32.6C52.5867 31.92 52.22 31.4 51.74 31.04C51.2733 30.6667 50.7267 30.48 50.1 30.48C49.4733 30.48 48.92 30.6667 48.44 31.04C47.9733 31.4 47.6067 31.92 47.34 32.6C47.0867 33.2667 46.96 34.0667 46.96 35C46.96 35.9333 47.0867 36.74 47.34 37.42C47.6067 38.0867 47.9733 38.6067 48.44 38.98C48.92 39.3533 49.4733 39.54 50.1 39.54ZM67.7509 42.24C66.8309 42.24 65.9843 42.0733 65.2109 41.74C64.4509 41.4067 63.8376 40.9 63.3709 40.22C62.9176 39.5267 62.6776 38.6467 62.6509 37.58H65.5709C65.5843 37.9933 65.6776 38.3667 65.8509 38.7C66.0243 39.02 66.2709 39.2733 66.5909 39.46C66.9109 39.6467 67.2976 39.74 67.7509 39.74C68.1643 39.74 68.5176 39.66 68.8109 39.5C69.1176 39.3267 69.3443 39.1067 69.4909 38.84C69.6509 38.56 69.7309 38.24 69.7309 37.88C69.7309 37.4667 69.6309 37.12 69.4309 36.84C69.2309 36.5467 68.9443 36.3267 68.5709 36.18C68.1976 36.02 67.7643 35.94 67.2709 35.94H66.2309V33.5H67.2709C67.8443 33.5 68.3443 33.3667 68.7709 33.1C69.1976 32.82 69.4109 32.3933 69.4109 31.82C69.4109 31.34 69.2576 30.9667 68.9509 30.7C68.6443 30.42 68.2376 30.28 67.7309 30.28C67.1176 30.28 66.6509 30.46 66.3309 30.82C66.0109 31.1667 65.8309 31.5867 65.7909 32.08H62.8909C62.9309 31.1733 63.1576 30.4 63.5709 29.76C63.9843 29.1067 64.5443 28.6133 65.2509 28.28C65.9709 27.9333 66.7976 27.76 67.7309 27.76C68.7176 27.76 69.5576 27.9333 70.2509 28.28C70.9443 28.6267 71.4643 29.0933 71.8109 29.68C72.1709 30.2533 72.3509 30.88 72.3509 31.56C72.3509 32.1333 72.2443 32.6333 72.0309 33.06C71.8176 33.4733 71.5376 33.82 71.1909 34.1C70.8443 34.3667 70.4776 34.56 70.0909 34.68C70.6109 34.7867 71.0576 34.9933 71.4309 35.3C71.8176 35.5933 72.1176 35.9733 72.3309 36.44C72.5443 36.8933 72.6509 37.4133 72.6509 38C72.6509 38.7733 72.4576 39.4867 72.0709 40.14C71.6976 40.78 71.1443 41.2933 70.4109 41.68C69.6909 42.0533 68.8043 42.24 67.7509 42.24ZM79.8994 42.24C78.9794 42.24 78.1327 42.0733 77.3594 41.74C76.5994 41.4067 75.986 40.9 75.5194 40.22C75.066 39.5267 74.826 38.6467 74.7994 37.58H77.7194C77.7327 37.9933 77.826 38.3667 77.9994 38.7C78.1727 39.02 78.4194 39.2733 78.7394 39.46C79.0594 39.6467 79.446 39.74 79.8994 39.74C80.3127 39.74 80.666 39.66 80.9594 39.5C81.266 39.3267 81.4927 39.1067 81.6394 38.84C81.7994 38.56 81.8794 38.24 81.8794 37.88C81.8794 37.4667 81.7794 37.12 81.5794 36.84C81.3794 36.5467 81.0927 36.3267 80.7194 36.18C80.346 36.02 79.9127 35.94 79.4194 35.94H78.3794V33.5H79.4194C79.9927 33.5 80.4927 33.3667 80.9194 33.1C81.346 32.82 81.5594 32.3933 81.5594 31.82C81.5594 31.34 81.406 30.9667 81.0994 30.7C80.7927 30.42 80.386 30.28 79.8794 30.28C79.266 30.28 78.7994 30.46 78.4794 30.82C78.1594 31.1667 77.9794 31.5867 77.9394 32.08H75.0394C75.0794 31.1733 75.306 30.4 75.7194 29.76C76.1327 29.1067 76.6927 28.6133 77.3994 28.28C78.1194 27.9333 78.946 27.76 79.8794 27.76C80.866 27.76 81.706 27.9333 82.3994 28.28C83.0927 28.6267 83.6127 29.0933 83.9594 29.68C84.3194 30.2533 84.4994 30.88 84.4994 31.56C84.4994 32.1333 84.3927 32.6333 84.1794 33.06C83.966 33.4733 83.686 33.82 83.3394 34.1C82.9927 34.3667 82.626 34.56 82.2394 34.68C82.7594 34.7867 83.206 34.9933 83.5794 35.3C83.966 35.5933 84.266 35.9733 84.4794 36.44C84.6927 36.8933 84.7994 37.4133 84.7994 38C84.7994 38.7733 84.606 39.4867 84.2194 40.14C83.846 40.78 83.2927 41.2933 82.5594 41.68C81.8394 42.0533 80.9527 42.24 79.8994 42.24ZM86.9478 42V39.78C87.7611 39.1133 88.5611 38.4533 89.3478 37.8C90.1478 37.1467 90.8611 36.5 91.4878 35.86C92.1278 35.2067 92.6345 34.5733 93.0078 33.96C93.3811 33.3333 93.5678 32.7333 93.5678 32.16C93.5678 31.8267 93.5011 31.52 93.3678 31.24C93.2478 30.9467 93.0545 30.72 92.7878 30.56C92.5345 30.3867 92.1945 30.3 91.7678 30.3C91.3545 30.3 91.0011 30.3933 90.7078 30.58C90.4145 30.7667 90.1945 31.0267 90.0478 31.36C89.9011 31.68 89.8278 32.0533 89.8278 32.48H86.9278C86.9678 31.4133 87.2078 30.5267 87.6478 29.82C88.0878 29.1133 88.6745 28.5933 89.4078 28.26C90.1545 27.9267 90.9745 27.76 91.8678 27.76C92.9078 27.76 93.7745 27.9533 94.4678 28.34C95.1611 28.7133 95.6811 29.22 96.0278 29.86C96.3878 30.4867 96.5678 31.1867 96.5678 31.96C96.5678 32.5733 96.4611 33.1667 96.2478 33.74C96.0345 34.3 95.7411 34.8467 95.3678 35.38C94.9945 35.9 94.5678 36.4067 94.0878 36.9C93.6211 37.38 93.1278 37.8467 92.6078 38.3C92.0878 38.74 91.5745 39.16 91.0678 39.56H96.8478V42H86.9478ZM108.122 42.24C107.202 42.24 106.355 42.0733 105.582 41.74C104.822 41.4067 104.209 40.9 103.742 40.22C103.289 39.5267 103.049 38.6467 103.022 37.58H105.942C105.955 37.9933 106.049 38.3667 106.222 38.7C106.395 39.02 106.642 39.2733 106.962 39.46C107.282 39.6467 107.669 39.74 108.122 39.74C108.535 39.74 108.889 39.66 109.182 39.5C109.489 39.3267 109.715 39.1067 109.862 38.84C110.022 38.56 110.102 38.24 110.102 37.88C110.102 37.4667 110.002 37.12 109.802 36.84C109.602 36.5467 109.315 36.3267 108.942 36.18C108.569 36.02 108.135 35.94 107.642 35.94H106.602V33.5H107.642C108.215 33.5 108.715 33.3667 109.142 33.1C109.569 32.82 109.782 32.3933 109.782 31.82C109.782 31.34 109.629 30.9667 109.322 30.7C109.015 30.42 108.609 30.28 108.102 30.28C107.489 30.28 107.022 30.46 106.702 30.82C106.382 31.1667 106.202 31.5867 106.162 32.08H103.262C103.302 31.1733 103.529 30.4 103.942 29.76C104.355 29.1067 104.915 28.6133 105.622 28.28C106.342 27.9333 107.169 27.76 108.102 27.76C109.089 27.76 109.929 27.9333 110.622 28.28C111.315 28.6267 111.835 29.0933 112.182 29.68C112.542 30.2533 112.722 30.88 112.722 31.56C112.722 32.1333 112.615 32.6333 112.402 33.06C112.189 33.4733 111.909 33.82 111.562 34.1C111.215 34.3667 110.849 34.56 110.462 34.68C110.982 34.7867 111.429 34.9933 111.802 35.3C112.189 35.5933 112.489 35.9733 112.702 36.44C112.915 36.8933 113.022 37.4133 113.022 38C113.022 38.7733 112.829 39.4867 112.442 40.14C112.069 40.78 111.515 41.2933 110.782 41.68C110.062 42.0533 109.175 42.24 108.122 42.24ZM120.67 42.24C119.617 42.24 118.717 42.06 117.97 41.7C117.224 41.3267 116.644 40.8267 116.23 40.2C115.817 39.56 115.584 38.84 115.53 38.04H118.45C118.53 38.4933 118.77 38.8867 119.17 39.22C119.584 39.54 120.084 39.7 120.67 39.7C121.097 39.7 121.47 39.5933 121.79 39.38C122.124 39.1533 122.377 38.8533 122.55 38.48C122.737 38.0933 122.83 37.6667 122.83 37.2C122.83 36.7067 122.737 36.2867 122.55 35.94C122.364 35.58 122.11 35.3133 121.79 35.14C121.47 34.9533 121.104 34.86 120.69 34.86C120.197 34.86 119.764 34.9867 119.39 35.24C119.017 35.48 118.75 35.7733 118.59 36.12H115.69L116.85 28H124.85V30.62H119.07L118.55 33.38C118.83 33.1 119.204 32.8733 119.67 32.7C120.15 32.5267 120.677 32.44 121.25 32.44C122.024 32.44 122.69 32.5733 123.25 32.84C123.81 33.0933 124.277 33.4467 124.65 33.9C125.024 34.3533 125.297 34.86 125.47 35.42C125.644 35.98 125.73 36.56 125.73 37.16C125.73 37.92 125.604 38.6133 125.35 39.24C125.097 39.8533 124.744 40.3867 124.29 40.84C123.837 41.28 123.297 41.6267 122.67 41.88C122.057 42.12 121.39 42.24 120.67 42.24ZM133.17 42.24C132.117 42.24 131.217 42.06 130.47 41.7C129.724 41.3267 129.144 40.8267 128.73 40.2C128.317 39.56 128.084 38.84 128.03 38.04H130.95C131.03 38.4933 131.27 38.8867 131.67 39.22C132.084 39.54 132.584 39.7 133.17 39.7C133.597 39.7 133.97 39.5933 134.29 39.38C134.624 39.1533 134.877 38.8533 135.05 38.48C135.237 38.0933 135.33 37.6667 135.33 37.2C135.33 36.7067 135.237 36.2867 135.05 35.94C134.864 35.58 134.61 35.3133 134.29 35.14C133.97 34.9533 133.604 34.86 133.19 34.86C132.697 34.86 132.264 34.9867 131.89 35.24C131.517 35.48 131.25 35.7733 131.09 36.12H128.19L129.35 28H137.35V30.62H131.57L131.05 33.38C131.33 33.1 131.704 32.8733 132.17 32.7C132.65 32.5267 133.177 32.44 133.75 32.44C134.524 32.44 135.19 32.5733 135.75 32.84C136.31 33.0933 136.777 33.4467 137.15 33.9C137.524 34.3533 137.797 34.86 137.97 35.42C138.144 35.98 138.23 36.56 138.23 37.16C138.23 37.92 138.104 38.6133 137.85 39.24C137.597 39.8533 137.244 40.3867 136.79 40.84C136.337 41.28 135.797 41.6267 135.17 41.88C134.557 42.12 133.89 42.24 133.17 42.24ZM144.682 42V39.78C145.496 39.1133 146.296 38.4533 147.082 37.8C147.882 37.1467 148.596 36.5 149.222 35.86C149.862 35.2067 150.369 34.5733 150.742 33.96C151.116 33.3333 151.302 32.7333 151.302 32.16C151.302 31.8267 151.236 31.52 151.102 31.24C150.982 30.9467 150.789 30.72 150.522 30.56C150.269 30.3867 149.929 30.3 149.502 30.3C149.089 30.3 148.736 30.3933 148.442 30.58C148.149 30.7667 147.929 31.0267 147.782 31.36C147.636 31.68 147.562 32.0533 147.562 32.48H144.662C144.702 31.4133 144.942 30.5267 145.382 29.82C145.822 29.1133 146.409 28.5933 147.142 28.26C147.889 27.9267 148.709 27.76 149.602 27.76C150.642 27.76 151.509 27.9533 152.202 28.34C152.896 28.7133 153.416 29.22 153.762 29.86C154.122 30.4867 154.302 31.1867 154.302 31.96C154.302 32.5733 154.196 33.1667 153.982 33.74C153.769 34.3 153.476 34.8467 153.102 35.38C152.729 35.9 152.302 36.4067 151.822 36.9C151.356 37.38 150.862 37.8467 150.342 38.3C149.822 38.74 149.309 39.16 148.802 39.56H154.582V42H144.682ZM156.245 42V39.78C157.058 39.1133 157.858 38.4533 158.645 37.8C159.445 37.1467 160.158 36.5 160.785 35.86C161.425 35.2067 161.931 34.5733 162.305 33.96C162.678 33.3333 162.865 32.7333 162.865 32.16C162.865 31.8267 162.798 31.52 162.665 31.24C162.545 30.9467 162.351 30.72 162.085 30.56C161.831 30.3867 161.491 30.3 161.065 30.3C160.651 30.3 160.298 30.3933 160.005 30.58C159.711 30.7667 159.491 31.0267 159.345 31.36C159.198 31.68 159.125 32.0533 159.125 32.48H156.225C156.265 31.4133 156.505 30.5267 156.945 29.82C157.385 29.1133 157.971 28.5933 158.705 28.26C159.451 27.9267 160.271 27.76 161.165 27.76C162.205 27.76 163.071 27.9533 163.765 28.34C164.458 28.7133 164.978 29.22 165.325 29.86C165.685 30.4867 165.865 31.1867 165.865 31.96C165.865 32.5733 165.758 33.1667 165.545 33.74C165.331 34.3 165.038 34.8467 164.665 35.38C164.291 35.9 163.865 36.4067 163.385 36.9C162.918 37.38 162.425 37.8467 161.905 38.3C161.385 38.74 160.871 39.16 160.365 39.56H166.145V42H156.245ZM172.319 42V39.78C173.132 39.1133 173.932 38.4533 174.719 37.8C175.519 37.1467 176.232 36.5 176.859 35.86C177.499 35.2067 178.006 34.5733 178.379 33.96C178.752 33.3333 178.939 32.7333 178.939 32.16C178.939 31.8267 178.872 31.52 178.739 31.24C178.619 30.9467 178.426 30.72 178.159 30.56C177.906 30.3867 177.566 30.3 177.139 30.3C176.726 30.3 176.372 30.3933 176.079 30.58C175.786 30.7667 175.566 31.0267 175.419 31.36C175.272 31.68 175.199 32.0533 175.199 32.48H172.299C172.339 31.4133 172.579 30.5267 173.019 29.82C173.459 29.1133 174.046 28.5933 174.779 28.26C175.526 27.9267 176.346 27.76 177.239 27.76C178.279 27.76 179.146 27.9533 179.839 28.34C180.532 28.7133 181.052 29.22 181.399 29.86C181.759 30.4867 181.939 31.1867 181.939 31.96C181.939 32.5733 181.832 33.1667 181.619 33.74C181.406 34.3 181.112 34.8467 180.739 35.38C180.366 35.9 179.939 36.4067 179.459 36.9C178.992 37.38 178.499 37.8467 177.979 38.3C177.459 38.74 176.946 39.16 176.439 39.56H182.219V42H172.319ZM188.981 42.24C188.061 42.24 187.215 42.0733 186.441 41.74C185.681 41.4067 185.068 40.9 184.601 40.22C184.148 39.5267 183.908 38.6467 183.881 37.58H186.801C186.815 37.9933 186.908 38.3667 187.081 38.7C187.255 39.02 187.501 39.2733 187.821 39.46C188.141 39.6467 188.528 39.74 188.981 39.74C189.395 39.74 189.748 39.66 190.041 39.5C190.348 39.3267 190.575 39.1067 190.721 38.84C190.881 38.56 190.961 38.24 190.961 37.88C190.961 37.4667 190.861 37.12 190.661 36.84C190.461 36.5467 190.175 36.3267 189.801 36.18C189.428 36.02 188.995 35.94 188.501 35.94H187.461V33.5H188.501C189.075 33.5 189.575 33.3667 190.001 33.1C190.428 32.82 190.641 32.3933 190.641 31.82C190.641 31.34 190.488 30.9667 190.181 30.7C189.875 30.42 189.468 30.28 188.961 30.28C188.348 30.28 187.881 30.46 187.561 30.82C187.241 31.1667 187.061 31.5867 187.021 32.08H184.121C184.161 31.1733 184.388 30.4 184.801 29.76C185.215 29.1067 185.775 28.6133 186.481 28.28C187.201 27.9333 188.028 27.76 188.961 27.76C189.948 27.76 190.788 27.9333 191.481 28.28C192.175 28.6267 192.695 29.0933 193.041 29.68C193.401 30.2533 193.581 30.88 193.581 31.56C193.581 32.1333 193.475 32.6333 193.261 33.06C193.048 33.4733 192.768 33.82 192.421 34.1C192.075 34.3667 191.708 34.56 191.321 34.68C191.841 34.7867 192.288 34.9933 192.661 35.3C193.048 35.5933 193.348 35.9733 193.561 36.44C193.775 36.8933 193.881 37.4133 193.881 38C193.881 38.7733 193.688 39.4867 193.301 40.14C192.928 40.78 192.375 41.2933 191.641 41.68C190.921 42.0533 190.035 42.24 188.981 42.24Z" fill="#B1B1B1"/>
<a href="tel:03323552223">
<rect fill="black" fill-opacity="0" y="-0.0200005" width="152.081" height="26.04"/>
</a>
<path d="M35 31.6069C34.9999 34.0326 34.1821 36.3853 32.6821 38.2755C31.1821 40.1656 29.0899 41.4797 26.7523 42L25.6357 38.6054C26.6583 38.4351 27.6307 38.0368 28.483 37.4394C29.3352 36.8419 30.0459 36.0602 30.5638 35.1505H26.25C25.3217 35.1505 24.4315 34.7768 23.7751 34.1116C23.1187 33.4464 22.75 32.5441 22.75 31.6034V24.5092C22.75 23.5684 23.1187 22.6662 23.7751 22.001C24.4315 21.3358 25.3217 20.962 26.25 20.962H31.3915C30.9644 17.5336 29.3176 14.3808 26.76 12.0954C24.2024 9.81003 20.9098 8.54903 17.5 8.54903C14.0902 8.54903 10.7976 9.81003 8.24 12.0954C5.68239 14.3808 4.03555 17.5336 3.6085 20.962H8.75C9.67826 20.962 10.5685 21.3358 11.2249 22.001C11.8813 22.6662 12.25 23.5684 12.25 24.5092V31.6034C12.25 32.5441 11.8813 33.4464 11.2249 34.1116C10.5685 34.7768 9.67826 35.1505 8.75 35.1505H3.5C2.57174 35.1505 1.6815 34.7768 1.02513 34.1116C0.368749 33.4464 0 32.5441 0 31.6034V22.7356C0 12.9402 7.83475 5 17.5 5C27.1652 5 35 12.9402 35 22.7356V31.6069Z" fill="#B1B1B1"/>
</svg>
