<svg width="160" height="120" viewBox="0 0 160 120" fill="none" xmlns="http://www.w3.org/2000/svg">
<rect x="0.5" y="0.5" width="159" height="119" rx="4.5" fill="white" stroke="#D9D9D9"/>
<path d="M80.4998 26.7812C78.8787 26.7812 77.268 27.3259 75.8804 28.3219L71.5851 31.3203L66.6362 31.9688H66.5558L66.4754 32.0492C64.8518 32.4145 63.3652 33.2332 62.1885 34.41C61.0117 35.5867 60.193 37.0733 59.8277 38.6969L59.7498 38.7773V38.8577L59.1014 43.8844L56.103 47.7751L56.02 47.8555V47.9359C54.207 50.8331 54.1266 54.5733 56.103 57.3382L59.1818 61.6335L59.9937 66.0947L51.6444 78.8171L48.9702 82.7907H61.3709L64.3693 89.7601L66.2342 94.2188L68.9084 90.1647L77.0942 77.8444C79.2937 78.747 81.776 78.83 83.9054 77.8444L92.0913 90.1647L94.7655 94.2188L96.6304 89.7601L99.6287 82.7907H112.029L109.355 78.8171L101.25 66.4993L101.898 61.6361L104.897 57.3408L104.98 57.2604V57.18C106.793 54.2828 106.873 50.623 104.897 47.8581L101.898 43.5602L100.926 38.6969H101.006C100.996 38.6347 100.936 38.5932 100.926 38.5335C100.459 35.1409 97.7742 32.3863 94.3608 31.9688H94.2778L89.4146 31.3203L85.1193 28.3219C83.7782 27.3386 82.1628 26.7998 80.4998 26.7812ZM80.4998 32.0492C81.0964 32.0492 81.6852 32.2307 82.1209 32.5368L86.7404 35.8594L87.3084 36.264L87.9569 36.347L93.632 37.1562H93.7098C94.877 37.2859 95.6862 38.0978 95.8185 39.265V39.4258L96.8742 45.1813L96.952 45.7493L97.3592 46.2344L100.682 50.8538C101.302 51.715 101.382 53.1753 100.601 54.4202L96.9546 59.5273L96.8716 60.1758L96.0623 65.8509V65.9287C96.0186 66.3339 95.88 66.7231 95.6577 67.0648L95.4943 67.1478V67.2256C95.1088 67.6886 94.556 67.9804 93.9562 68.0374H93.7928L87.8765 69.0931L87.228 69.1709L86.7404 69.5781L82.1209 72.9007C81.2598 73.5206 79.7191 73.601 78.4741 72.8203L74.2593 69.5781L73.7717 69.1735L73.0428 69.0905L67.3677 68.2812H67.2899C66.9234 68.2478 66.5702 68.1273 66.2598 67.9297C65.9494 67.732 65.6907 67.4631 65.5054 67.1452C65.3337 66.8458 65.2234 66.5151 65.1812 66.1725V66.0117L64.1281 60.0954L64.0451 59.4469L63.6405 58.9593L60.3179 54.3398C59.698 53.4787 59.6176 51.938 60.3983 50.693L63.6405 46.4782L64.0451 45.9906L64.1255 45.2617L64.8569 39.8304C64.8673 39.7915 64.927 39.7915 64.9373 39.75C65.1005 39.1263 65.4268 38.5574 65.8826 38.1015C66.3385 37.6457 66.9074 37.3194 67.5311 37.1562C67.5726 37.1459 67.5726 37.0862 67.6115 37.0758L73.0428 36.3444L73.6912 36.2666L74.2593 35.8594L78.8787 32.5368C79.3145 32.2333 79.9033 32.0492 80.4998 32.0492ZM98.4123 71.5234L102.386 77.6032H96.1402L95.4917 79.2243L93.7098 83.3561L88.1981 74.9264L89.412 74.0368L94.5217 73.1445V73.2249C94.5813 73.2146 94.6202 73.1549 94.6825 73.1445C96.0476 72.9476 97.3374 72.3877 98.4123 71.5234ZM62.5874 71.6038C63.7137 72.6278 65.1286 73.2791 66.6388 73.4688H66.7192L71.6655 74.1172L72.799 75.0094L67.2873 83.3561L65.5054 79.2243L64.8569 77.6032H58.6164L62.5874 71.6038Z" fill="#D9D9D9"/>
</svg>
