<svg width="50" height="50" viewBox="0 0 50 50" fill="none" xmlns="http://www.w3.org/2000/svg">
<path d="M28.8994 15.7777C28.5945 15.7778 28.3014 15.8992 28.085 16.1166L19.8525 24.39L19.8516 24.392C19.7441 24.4991 19.658 24.6262 19.5996 24.767C19.5412 24.9079 19.5107 25.0595 19.5107 25.2123C19.5108 25.3649 19.5413 25.5159 19.5996 25.6566C19.658 25.7975 19.744 25.9254 19.8516 26.0326L19.8525 26.0345L28.085 34.307L28.0869 34.309C28.1936 34.4169 28.3205 34.5025 28.46 34.5609C28.5993 34.6192 28.7486 34.6498 28.8994 34.6498C29.0504 34.6498 29.2003 34.6193 29.3398 34.5609C29.4793 34.5025 29.6062 34.417 29.7129 34.309L29.7158 34.306L29.792 34.222C29.8642 34.1343 29.923 34.0358 29.9668 33.9301C30.0251 33.7893 30.0556 33.6383 30.0557 33.4857C30.0557 33.333 30.0252 33.1813 29.9668 33.0404C29.9084 32.8996 29.8234 32.7716 29.7158 32.6644L29.7148 32.6635L22.6348 25.5648L22.2822 25.2123L22.6348 24.8588L29.7148 17.7611H29.7139C29.9304 17.5435 30.0527 17.2477 30.0527 16.9388C30.0527 16.6301 29.9304 16.3341 29.7139 16.1166C29.4974 15.8993 29.2043 15.7777 28.8994 15.7777Z" fill="white" stroke="white"/>
<circle cx="25" cy="25" r="24" transform="matrix(-1 0 0 1 50 0)" stroke="white" stroke-width="2"/>
</svg>
