<svg width="12" height="11" viewBox="0 0 12 11" fill="none" xmlns="http://www.w3.org/2000/svg">
<path d="M5.64506 9.03382L2.90854 10.6823C2.78765 10.7593 2.66127 10.7922 2.52939 10.7812C2.39751 10.7702 2.28211 10.7263 2.1832 10.6494C2.08429 10.5724 2.00736 10.4764 1.95241 10.3612C1.89746 10.246 1.88647 10.1168 1.91944 9.97347L2.64478 6.85779L0.221477 4.76419C0.111577 4.66528 0.0429991 4.55252 0.0157438 4.42591C-0.0115115 4.29931 -0.00337895 4.17578 0.0401416 4.05533C0.0836622 3.93488 0.149602 3.83597 0.237962 3.7586C0.326322 3.68123 0.447213 3.63177 0.600634 3.61023L3.79874 3.32998L5.03512 0.395642C5.09007 0.263761 5.17535 0.164851 5.29097 0.0989103C5.40658 0.03297 5.52461 0 5.64506 0C5.76552 0 5.88355 0.03297 5.99916 0.0989103C6.11478 0.164851 6.20006 0.263761 6.25501 0.395642L7.49139 3.32998L10.6895 3.61023C10.8434 3.63221 10.9642 3.68167 11.0522 3.7586C11.1401 3.83553 11.206 3.93444 11.25 4.05533C11.2939 4.17622 11.3023 4.29997 11.275 4.42657C11.2478 4.55318 11.179 4.66571 11.0687 4.76419L8.64535 6.85779L9.37069 9.97347C9.40366 10.1163 9.39267 10.2456 9.33772 10.3612C9.28277 10.4768 9.20584 10.5729 9.10693 10.6494C9.00802 10.7258 8.89262 10.7698 8.76074 10.7812C8.62886 10.7927 8.50248 10.7597 8.38159 10.6823L5.64506 9.03382Z" fill="white"/>
</svg>
