<svg width="104" height="104" viewBox="0 0 104 104" fill="none" xmlns="http://www.w3.org/2000/svg">
<path fill-rule="evenodd" clip-rule="evenodd" d="M51.6415 5.67404e-10C58.4232 -3.17886e-05 65.1385 1.33569 71.404 3.93091C77.6694 6.52612 83.3624 10.33 88.1578 15.1254C92.9531 19.9207 96.757 25.6137 99.3523 31.8791C101.948 38.1446 103.283 44.8598 103.283 51.6415C103.283 80.1625 80.1625 103.283 51.6415 103.283C23.1208 103.283 0 80.1625 0 51.6415C0 23.1208 23.1208 5.67404e-10 51.6415 5.67404e-10ZM56.8059 56.8059H46.4774C33.6925 56.8059 22.7163 64.5489 17.9822 75.6021C25.4728 86.1058 37.7574 92.9549 51.6415 92.9549C65.5257 92.9549 77.8103 86.1058 85.3011 75.6014C80.567 64.5489 69.5908 56.8059 56.8059 56.8059ZM51.6415 15.4925C43.0853 15.4925 36.149 22.4288 36.149 30.985C36.149 39.5412 43.0853 46.4774 51.6415 46.4774C60.1977 46.4774 67.134 39.5412 67.134 30.985C67.134 22.4288 60.198 15.4925 51.6415 15.4925Z" fill="#808285"/>
</svg>
