<svg width="64" height="30" viewBox="0 0 64 30" fill="none" xmlns="http://www.w3.org/2000/svg">
<path d="M37.247 3.43776C35.2291 5.48361 32.5366 6.61753 29.671 6.63553L11.552 6.71953L11.0684 6.77352L7.37891 14.405L25.5517 14.321C28.2084 14.309 30.7038 13.2591 32.5725 11.3632C34.8411 9.05936 37.8679 7.78745 41.0917 7.76945L59.5749 7.68546L63.2883 0H62.8704L45.217 0.0839943C42.2021 0.0959934 39.3783 1.28991 37.253 3.43776H37.247Z" fill="#939393"/>
<path d="M59.1867 8.47754H58.745L41.0916 8.56153C38.0767 8.57353 35.2529 9.76745 33.1275 11.9153C31.1097 13.9612 28.4172 15.0951 25.5516 15.1131L7.43249 15.1971L6.96683 15.2511L3.27734 22.8825L20.9487 22.8045C23.6053 22.7925 26.1008 21.7426 27.9694 19.8467C30.238 17.5429 33.2648 16.271 36.4887 16.253L55.4077 16.169L59.1748 8.48354L59.1867 8.47754Z" fill="#939393"/>
<path d="M55.0318 16.9551H54.1542L36.5008 17.0391C33.4859 17.0511 30.6621 18.245 28.5368 20.3928C26.5189 22.4387 23.8264 23.5726 20.9608 23.5906L2.90144 23.6746L0 29.6742H1.45669L16.3221 29.6022L19.0146 29.5902C22.1309 29.5782 25.0622 28.3423 27.2532 26.1164C29.1995 24.1426 31.7905 23.0507 34.5546 23.0387L52.1841 22.9607L55.0258 16.9611L55.0318 16.9551Z" fill="#939393"/>
</svg>
