<svg width="17" height="17" viewBox="0 0 17 17" fill="none" xmlns="http://www.w3.org/2000/svg">
<path d="M8.03521 1.45215C10.1844 1.45215 10.4361 1.45215 11.288 1.49087C12.0625 1.52959 12.4885 1.66513 12.7789 1.76194C13.1468 1.91683 13.4178 2.09109 13.7083 2.36216C13.9987 2.63322 14.1729 2.90429 14.3085 3.29153C14.4246 3.58196 14.5408 4.00792 14.5795 4.7824C14.6183 5.63433 14.6183 5.88603 14.6183 8.03521C14.6183 10.1844 14.6183 10.4361 14.5795 11.288C14.5408 12.0625 14.4053 12.4885 14.3085 12.7789C14.1536 13.1468 13.9793 13.4178 13.7083 13.7083C13.4372 13.9793 13.1661 14.1729 12.7789 14.3085C12.4885 14.4246 12.0625 14.5408 11.288 14.5795C10.4361 14.6183 10.1844 14.6183 8.03521 14.6183C5.88603 14.6183 5.63433 14.6183 4.80176 14.5795C4.02728 14.5408 3.60132 14.4053 3.31089 14.3085C2.94302 14.1536 2.67195 13.9793 2.38152 13.7083C2.09109 13.4178 1.91683 13.1661 1.7813 12.7789C1.66513 12.4885 1.54896 12.0625 1.51023 11.288C1.47151 10.4361 1.47151 10.1844 1.47151 8.03521C1.47151 5.88603 1.47151 5.63433 1.51023 4.7824C1.54896 4.00792 1.68449 3.58196 1.7813 3.29153C1.93619 2.92365 2.11045 2.65259 2.38152 2.36216C2.65259 2.09109 2.92365 1.91683 3.31089 1.76194C3.60132 1.64577 4.02728 1.52959 4.80176 1.49087C5.65369 1.45215 5.90539 1.45215 8.03521 1.45215ZM8.03521 0C5.84731 0 5.57624 0 4.72431 0.0580858C3.87239 0.0968097 3.29153 0.232343 2.76876 0.425963C2.24599 0.638944 1.80066 0.910011 1.35534 1.35534C0.910011 1.80066 0.638944 2.24599 0.425963 2.76876C0.232343 3.27217 0.0968097 3.87239 0.0580858 4.72431C0.0193619 5.57624 0 5.84731 0 8.03521C0 10.2231 0 10.4942 0.0580858 11.3461C0.0968097 12.198 0.232343 12.7789 0.425963 13.3017C0.638944 13.8244 0.910011 14.2698 1.35534 14.7151C1.80066 15.1604 2.24599 15.4315 2.76876 15.6445C3.27217 15.8381 3.87239 15.9736 4.72431 16.0123C5.57624 16.0511 5.84731 16.0511 8.03521 16.0511C10.2231 16.0511 10.4942 16.0511 11.3461 16.0123C12.198 15.9736 12.7789 15.8381 13.3017 15.6445C13.8244 15.4508 14.2698 15.1604 14.7151 14.7151C15.1604 14.2698 15.4315 13.8244 15.6445 13.3017C15.8381 12.7982 15.9736 12.2174 16.0123 11.3461C16.0511 10.4942 16.0704 10.2231 16.0704 8.03521C16.0704 5.84731 16.0704 5.57624 16.0123 4.72431C15.9736 3.87239 15.8381 3.29153 15.6445 2.76876C15.4315 2.24599 15.1604 1.80066 14.7151 1.35534C14.2698 0.910011 13.8244 0.638944 13.3017 0.425963C12.7982 0.232343 12.198 0.0968097 11.3461 0.0580858C10.4942 0.0193619 10.2231 0 8.03521 0Z" fill="#B1B1B1"/>
<path d="M8.03523 3.91211C5.75052 3.91211 3.91113 5.75149 3.91113 8.0362C3.91113 10.3209 5.75052 12.1603 8.03523 12.1603C10.3199 12.1603 12.1593 10.3209 12.1593 8.0362C12.1593 5.75149 10.3199 3.91211 8.03523 3.91211ZM8.03523 10.7082C6.56372 10.7082 5.36328 9.50771 5.36328 8.0362C5.36328 6.5647 6.56372 5.36426 8.03523 5.36426C9.50673 5.36426 10.7072 6.5647 10.7072 8.0362C10.7072 9.50771 9.50673 10.7082 8.03523 10.7082Z" fill="#B1B1B1"/>
</svg>
