<svg width="16" height="17" viewBox="0 0 16 17" fill="none" xmlns="http://www.w3.org/2000/svg">
<path d="M15.8768 14.444C15.8768 15.3347 15.1604 16.0511 14.2698 16.0511H1.60704C0.716392 16.0511 0 15.3347 0 14.444V1.60704C0 0.716392 0.716392 0 1.60704 0H14.2698C15.1604 0 15.8768 0.716392 15.8768 1.60704V14.4634V14.444ZM4.04665 2.86557C3.34962 2.86557 2.90429 3.33025 2.90429 3.93047C2.90429 4.53069 3.33025 4.99538 4.00792 4.99538C4.72431 4.99538 5.15028 4.51133 5.15028 3.93047C5.15028 3.33025 4.72431 2.86557 4.02728 2.86557H4.04665ZM5.09219 12.7014V5.82794H2.96238V12.7014H5.09219ZM6.37008 12.7014H8.49989V8.73224C8.49989 8.53862 8.49989 8.345 8.57734 8.1901C8.73224 7.80286 9.08075 7.39626 9.68097 7.39626C10.4554 7.39626 10.7652 7.99648 10.7652 8.88713V12.7014H12.8951V8.63543C12.8951 6.62178 11.8495 5.67305 10.4361 5.67305C9.29373 5.67305 8.5967 6.33136 8.30627 6.77668H8.26755L8.17074 5.82794H6.31199C6.33136 6.44753 6.37008 7.16392 6.37008 8.01584V12.7014Z" fill="#B1B1B1"/>
</svg>
