<svg width="250" height="54" viewBox="0 0 250 54" fill="none" xmlns="http://www.w3.org/2000/svg">
<path d="M134.388 28.4273H125.003L114.591 14.6127L107.581 20.3463V28.4273H100.139V0H107.581V12.4589L122.47 0H132.527L120.252 9.99415L134.388 28.4273Z" fill="#B1B1B1"/>
<path d="M137.517 28.4273V0H144.958V22.3357H166.659V28.4273H137.517Z" fill="#B1B1B1"/>
<path d="M199.402 20.1468H199.601L208.945 0H217.619L203.681 28.4273H195.328L181.385 0H190.093L199.397 20.1468H199.402Z" fill="#B1B1B1"/>
<path d="M172.852 4.19602H178.536V0H171.089V28.4273H178.536V8.33922L172.852 4.19602Z" fill="#B1B1B1"/>
<path d="M82.8392 0H73.3313L59.0024 28.4273H67.2379L69.7302 23.2512H81.2925L78.8761 17.5176H72.5434L77.8897 6.44954H78.1232L83.5104 17.5176L86.2828 23.2512L88.8159 28.4273H97.0922L82.8392 0Z" fill="#B1B1B1"/>
<path d="M235.747 0H226.245L211.91 28.4273H220.146L222.644 23.2512H234.2L231.79 17.5176H225.451L230.797 6.44954H231.037L236.424 17.5176L239.191 23.2512L241.729 28.4273H250L235.747 0Z" fill="#B1B1B1"/>
<path d="M106.612 36.6782H108.917V38.2569H106.612V36.6782ZM106.623 49.6243V39.2076H108.917V49.6243H106.623Z" fill="#B1B1B1"/>
<path d="M128.522 39.2021V49.6188H125.907L119.201 42.0191H119.131V49.6188H116.954V39.2021H119.639L126.269 46.7139H126.339V39.2021H128.516H128.522Z" fill="#B1B1B1"/>
<path d="M146.347 49.0256C145.483 49.5537 144.211 49.8413 142.518 49.9L142.244 50.2638C142.39 50.2345 142.577 50.2228 142.81 50.2228C143.341 50.2228 143.791 50.3284 144.153 50.5455C144.515 50.7568 144.696 51.1148 144.696 51.6136C144.696 52.1359 144.462 52.5174 144.001 52.7462C143.534 52.9751 142.857 53.0866 141.97 53.0866C141.223 53.0866 140.575 53.0162 140.026 52.8695V51.8073H140.096C140.697 52.0009 141.287 52.1007 141.865 52.1007C142.157 52.1007 142.373 52.0655 142.524 51.9892C142.676 51.9188 142.752 51.7955 142.752 51.6195C142.752 51.4434 142.676 51.3202 142.524 51.2498C142.373 51.1793 142.157 51.1383 141.865 51.1383C141.707 51.1383 141.509 51.15 141.258 51.1735C141.007 51.1969 140.838 51.2263 140.75 51.2556H140.68V50.6746L141.246 49.9176C139.513 49.8765 138.194 49.5772 137.283 49.0138C136.373 48.4505 135.9 47.4939 135.859 46.1382H138.427C138.485 46.9188 138.795 47.4469 139.361 47.7345C139.927 48.0221 140.744 48.1629 141.818 48.1629C143.937 48.1629 144.999 47.6699 144.999 46.6723C144.999 46.2439 144.865 45.9387 144.602 45.7509C144.334 45.5631 143.948 45.4516 143.435 45.3988L139.53 45.0056C138.439 44.9 137.61 44.6242 137.044 44.1899C136.478 43.7556 136.197 43.069 136.197 42.1476C136.197 39.9997 138.007 38.9199 141.625 38.9199C143.388 38.9199 144.76 39.184 145.752 39.7063C146.744 40.2345 147.258 41.1148 147.299 42.3648H144.731C144.684 41.731 144.392 41.2908 143.855 41.0385C143.318 40.7861 142.553 40.657 141.567 40.657C139.717 40.657 138.795 41.103 138.795 42.0009C138.795 42.3589 138.923 42.6171 139.174 42.7756C139.425 42.934 139.834 43.0397 140.394 43.0983L144.31 43.4504C145.396 43.5502 146.219 43.8319 146.791 44.3014C147.363 44.7709 147.649 45.5103 147.649 46.5138C147.649 47.6699 147.217 48.515 146.359 49.0373L146.347 49.0256Z" fill="#B1B1B1"/>
<path d="M163.846 47.5057H157.636L156.591 49.6242H154.081L159.363 39.2075H162.194L167.447 49.6242H164.89L163.846 47.5057ZM162.947 45.6805L160.77 41.2733H160.711L158.534 45.6805H162.947Z" fill="#B1B1B1"/>
<path d="M183.398 47.5057H177.188L176.144 49.6242H173.634L178.916 39.2075H181.747L187 49.6242H184.443L183.398 47.5057ZM182.494 45.6805L180.317 41.2733H180.258L178.081 45.6805H182.494Z" fill="#B1B1B1"/>
<path d="M202.986 41.1446H198.299V49.6247H196.005V41.1446H191.33V39.2021H202.986V41.1446Z" fill="#B1B1B1"/>
<path d="M36.4145 9.21962C34.4417 11.2208 31.8094 12.33 29.0078 12.3476L11.2937 12.4297L10.8209 12.4825L7.21387 19.9473L24.9805 19.8652C27.5778 19.8534 30.0175 18.8264 31.8444 16.972C34.0623 14.7185 37.0215 13.4743 40.1733 13.4567L58.2435 13.3746L61.8738 5.85693H61.4653L44.2064 5.93909C41.2589 5.95083 38.4982 7.11867 36.4203 9.21962H36.4145Z" fill="#B1B1B1"/>
<path d="M57.8641 14.1494H57.4322L40.1733 14.2316C37.2258 14.2433 34.465 15.4112 32.3872 17.5121C30.4144 19.5133 27.7821 20.6224 24.9805 20.64L7.26639 20.7222L6.81113 20.775L3.2041 28.2398L20.4805 28.1635C23.0778 28.1518 25.5175 27.1248 27.3444 25.2703C29.5623 23.0168 32.5215 21.7727 35.6732 21.7551L54.1695 21.6729L57.8524 14.1553L57.8641 14.1494Z" fill="#B1B1B1"/>
<path d="M53.802 22.4414H52.944L35.6851 22.5236C32.7376 22.5353 29.9769 23.7031 27.899 25.8041C25.9263 27.8053 23.294 28.9144 20.4924 28.932L2.8366 29.0142L0 34.8827H1.42414L15.9573 34.8123L18.5896 34.8006C21.6364 34.7889 24.5021 33.5799 26.6442 31.4027C28.5469 29.4719 31.08 28.4039 33.7824 28.3921L51.0179 28.3158L53.7961 22.4473L53.802 22.4414Z" fill="#B1B1B1"/>
</svg>
