<svg width="256" height="55" viewBox="0 0 256 55" fill="none" xmlns="http://www.w3.org/2000/svg">
<path d="M137.388 29.062H127.794L117.149 14.9389L109.982 20.8005V29.062H102.375V0H109.982V12.7371L125.204 0H135.485L122.937 10.2173L137.388 29.062Z" fill="white"/>
<path d="M140.587 29.062V0H148.195V22.8344H170.38V29.062H140.587Z" fill="#F69930"/>
<path d="M203.854 20.5965H204.057L213.61 0H222.477L208.228 29.062H199.69L185.435 0H194.337L203.849 20.5965H203.854Z" fill="#F69930"/>
<path d="M176.711 4.2897H182.522V0H174.909V29.062H182.522V8.5254L176.711 4.2897Z" fill="#F69930"/>
<path d="M84.6888 0H74.9686L60.3198 29.062H68.7392L71.287 23.7703H83.1075L80.6372 17.9087H74.1631L79.6288 6.59354H79.8675L85.375 17.9087L88.2093 23.7703L90.7989 29.062H99.26L84.6888 0Z" fill="white"/>
<path d="M241.01 0H231.296L216.641 29.062H225.06L227.614 23.7703H239.429L236.964 17.9087H230.484L235.95 6.59354H236.195L241.702 17.9087L244.531 23.7703L247.126 29.062H255.581L241.01 0Z" fill="#F69930"/>
<path d="M108.992 37.4974H111.349V39.1113H108.992V37.4974ZM109.004 50.7324V40.0832H111.349V50.7324H109.004Z" fill="#F69930"/>
<path d="M131.392 40.0772V50.7265H128.719L121.863 42.957H121.791V50.7265H119.565V40.0772H122.31L129.089 47.7567H129.16V40.0772H131.386H131.392Z" fill="#F69930"/>
<path d="M149.615 50.1205C148.732 50.6604 147.431 50.9544 145.701 51.0144L145.42 51.3864C145.57 51.3564 145.761 51.3444 145.999 51.3444C146.542 51.3444 147.002 51.4524 147.372 51.6743C147.742 51.8903 147.927 52.2563 147.927 52.7663C147.927 53.3002 147.688 53.6902 147.216 53.9242C146.739 54.1582 146.047 54.2722 145.14 54.2722C144.376 54.2722 143.714 54.2002 143.153 54.0502V52.9643H143.225C143.839 53.1622 144.442 53.2642 145.033 53.2642C145.331 53.2642 145.552 53.2282 145.707 53.1502C145.862 53.0782 145.94 52.9523 145.94 52.7723C145.94 52.5923 145.862 52.4663 145.707 52.3943C145.552 52.3223 145.331 52.2803 145.033 52.2803C144.871 52.2803 144.669 52.2923 144.412 52.3163C144.155 52.3403 143.982 52.3703 143.893 52.4003H143.821V51.8063L144.4 51.0324C142.628 50.9904 141.279 50.6844 140.349 50.1085C139.418 49.5325 138.934 48.5546 138.893 47.1687H141.518C141.578 47.9666 141.894 48.5066 142.473 48.8005C143.052 49.0945 143.887 49.2385 144.985 49.2385C147.151 49.2385 148.237 48.7346 148.237 47.7146C148.237 47.2767 148.1 46.9647 147.831 46.7727C147.557 46.5807 147.163 46.4667 146.638 46.4127L142.646 46.0107C141.53 45.9028 140.683 45.6208 140.104 45.1768C139.525 44.7328 139.239 44.0309 139.239 43.089C139.239 40.8931 141.088 39.7892 144.788 39.7892C146.59 39.7892 147.992 40.0592 149.007 40.5931C150.021 41.1331 150.546 42.033 150.588 43.3109H147.962C147.915 42.663 147.616 42.213 147.067 41.955C146.518 41.6971 145.737 41.5651 144.728 41.5651C142.837 41.5651 141.894 42.021 141.894 42.939C141.894 43.3049 142.025 43.5689 142.282 43.7309C142.538 43.8929 142.956 44.0009 143.529 44.0609L147.533 44.4209C148.643 44.5229 149.484 44.8108 150.069 45.2908C150.653 45.7708 150.946 46.5267 150.946 47.5526C150.946 48.7346 150.504 49.5985 149.627 50.1325L149.615 50.1205Z" fill="#F69930"/>
<path d="M167.504 48.5666H161.155L160.087 50.7324H157.521L162.921 40.0832H165.815L171.185 50.7324H168.572L167.504 48.5666ZM166.585 46.7007L164.359 42.195H164.299L162.074 46.7007H166.585Z" fill="#F69930"/>
<path d="M187.493 48.5666H181.144L180.076 50.7324H177.51L182.91 40.0832H185.804L191.175 50.7324H188.561L187.493 48.5666ZM186.568 46.7007L184.342 42.195H184.283L182.057 46.7007H186.568Z" fill="#F69930"/>
<path d="M207.518 42.0631H202.727V50.7325H200.382V42.0631H195.602V40.0772H207.518V42.0631Z" fill="#F69930"/>
<path d="M37.2275 9.42531C35.2107 11.4712 32.5196 12.6051 29.6555 12.6231L11.5459 12.7071L11.0626 12.7611L7.375 20.3925L25.5383 20.3085C28.1936 20.2965 30.6878 19.2466 32.5554 17.3507C34.8229 15.0469 37.8481 13.775 41.0703 13.757L59.5439 13.673L63.2553 5.98755H62.8376L45.1934 6.07154C42.1801 6.08354 39.3577 7.27746 37.2335 9.42531H37.2275Z" fill="#F69930"/>
<path d="M59.1562 14.465H58.7146L41.0704 14.549C38.0571 14.561 35.2348 15.7549 33.1105 17.9027C31.0937 19.9486 28.4026 21.0825 25.5385 21.1005L7.42886 21.1845L6.96344 21.2385L3.27588 28.87L20.938 28.792C23.5933 28.78 26.0875 27.73 27.9551 25.8342C30.2225 23.5303 33.2478 22.2584 36.4699 22.2404L55.3791 22.1564L59.1442 14.471L59.1562 14.465Z" fill="white"/>
<path d="M55.0032 22.9424H54.126L36.4818 23.0264C33.4685 23.0384 30.6462 24.2323 28.5219 26.3801C26.5051 28.426 23.814 29.5599 20.9499 29.5779L2.89993 29.6619L0 35.6615H1.45593L16.3136 35.5895L19.0047 35.5775C22.1194 35.5655 25.0492 34.3296 27.239 32.1037C29.1843 30.1299 31.7739 29.038 34.5366 29.026L52.1569 28.948L54.9972 22.9484L55.0032 22.9424Z" fill="white"/>
</svg>
