<svg width="19" height="19" viewBox="0 0 19 19" fill="none" xmlns="http://www.w3.org/2000/svg">
<path d="M9.50002 13.6759L6.2146 15.6551C6.06946 15.7474 5.91772 15.787 5.75939 15.7738C5.60106 15.7606 5.46252 15.7079 5.34377 15.6155C5.22502 15.5231 5.13266 15.4078 5.06668 15.2695C5.00071 15.1313 4.98752 14.9761 5.0271 14.804L5.89793 11.0634L2.98856 8.54987C2.85661 8.43112 2.77428 8.29574 2.74156 8.14374C2.70884 7.99174 2.7186 7.84344 2.77085 7.69883C2.8231 7.55422 2.90227 7.43547 3.00835 7.34258C3.11443 7.24969 3.25957 7.19031 3.44377 7.16445L7.28335 6.828L8.76772 3.30508C8.8337 3.14674 8.93609 3.02799 9.07489 2.94883C9.2137 2.86966 9.35541 2.83008 9.50002 2.83008C9.64463 2.83008 9.78634 2.86966 9.92514 2.94883C10.0639 3.02799 10.1663 3.14674 10.2323 3.30508L11.7167 6.828L15.5563 7.16445C15.741 7.19084 15.8861 7.25022 15.9917 7.34258C16.0972 7.43494 16.1764 7.55369 16.2292 7.69883C16.282 7.84397 16.292 7.99254 16.2593 8.14454C16.2265 8.29654 16.1439 8.43165 16.0115 8.54987L13.1021 11.0634L13.9729 14.804C14.0125 14.9756 13.9993 15.1307 13.9334 15.2695C13.8674 15.4083 13.775 15.5237 13.6563 15.6155C13.5375 15.7073 13.399 15.7601 13.2406 15.7738C13.0823 15.7875 12.9306 15.748 12.7854 15.6551L9.50002 13.6759Z" fill="#D6790F"/>
</svg>
