<svg width="51" height="50" viewBox="0 0 51 50" fill="none" xmlns="http://www.w3.org/2000/svg">
<path d="M21.3232 15.8845C21.6281 15.8846 21.9213 16.006 22.1377 16.2234L30.3701 24.4968L30.3711 24.4988C30.4786 24.6059 30.5647 24.733 30.623 24.8738C30.6815 25.0147 30.7119 25.1663 30.7119 25.3191C30.7119 25.4717 30.6813 25.6227 30.623 25.7634C30.5646 25.9043 30.4787 26.0322 30.3711 26.1394L30.3701 26.1414L22.1377 34.4138L22.1357 34.4158C22.0291 34.5238 21.9021 34.6094 21.7627 34.6677C21.6233 34.726 21.4741 34.7566 21.3232 34.7566C21.1722 34.7566 21.0223 34.7261 20.8828 34.6677C20.7433 34.6093 20.6164 34.5238 20.5098 34.4158L20.5068 34.4128L20.4307 34.3289C20.3584 34.2411 20.2997 34.1426 20.2559 34.0369C20.1975 33.8961 20.167 33.7451 20.167 33.5925C20.167 33.4398 20.1975 33.2881 20.2559 33.1472C20.3143 33.0064 20.3993 32.8784 20.5068 32.7712L20.5078 32.7703L27.5879 25.6716L27.9404 25.3191L27.5879 24.9656L20.5078 17.8679H20.5088C20.2922 17.6503 20.1699 17.3545 20.1699 17.0457C20.17 16.7369 20.2923 16.4409 20.5088 16.2234C20.7252 16.0061 21.0184 15.8845 21.3232 15.8845Z" fill="white" stroke="white"/>
<circle cx="25.2222" cy="25" r="24" stroke="white" stroke-width="2"/>
</svg>
