<svg width="20" height="20" viewBox="0 0 20 20" fill="none" xmlns="http://www.w3.org/2000/svg">
<path d="M14 0.150391C14.2254 0.150391 14.4412 0.240008 14.6006 0.399414C14.76 0.55882 14.8496 0.774566 14.8496 1V2.15039H17C17.7559 2.15039 18.4811 2.4499 19.0156 2.98438C19.5501 3.51885 19.8496 4.24413 19.8496 5V17C19.8496 17.7559 19.5501 18.4811 19.0156 19.0156C18.4811 19.5501 17.7559 19.8496 17 19.8496H3C2.24413 19.8496 1.51885 19.5501 0.984375 19.0156C0.449897 18.4811 0.150391 17.7559 0.150391 17V5C0.150391 4.24413 0.449896 3.51885 0.984375 2.98438C1.51885 2.4499 2.24413 2.15039 3 2.15039H5.15039V1C5.15039 0.774566 5.24001 0.55882 5.39941 0.399414C5.55882 0.240008 5.77457 0.150391 6 0.150391C6.22543 0.150391 6.44118 0.240008 6.60059 0.399414C6.75999 0.55882 6.84961 0.774566 6.84961 1V2.15039H13.1504V1C13.1504 0.774566 13.24 0.55882 13.3994 0.399414C13.5588 0.240008 13.7746 0.150391 14 0.150391ZM1.84961 17C1.84961 17.305 1.97086 17.5978 2.18652 17.8135C2.40219 18.0291 2.695 18.1504 3 18.1504H17C17.305 18.1504 17.5978 18.0291 17.8135 17.8135C18.0291 17.5978 18.1504 17.305 18.1504 17V9.84961H1.84961V17ZM3 3.84961C2.695 3.84961 2.40219 3.97086 2.18652 4.18652C1.97086 4.40219 1.84961 4.695 1.84961 5V8.15039H18.1504V5C18.1504 4.695 18.0291 4.40219 17.8135 4.18652C17.5978 3.97086 17.305 3.84961 17 3.84961H14.8496V5C14.8496 5.22543 14.76 5.44118 14.6006 5.60059C14.4412 5.75999 14.2254 5.84961 14 5.84961C13.7746 5.84961 13.5588 5.75999 13.3994 5.60059C13.24 5.44118 13.1504 5.22543 13.1504 5V3.84961H6.84961V5C6.84961 5.22543 6.75999 5.44118 6.60059 5.60059C6.44118 5.75999 6.22543 5.84961 6 5.84961C5.77457 5.84961 5.55882 5.75999 5.39941 5.60059C5.24001 5.44118 5.15039 5.22543 5.15039 5V3.84961H3Z" fill="white" stroke="#808285" stroke-width="0.3"/>
</svg>
